<?xml version="1.0" encoding="UTF-8" standalone="no"?>
<!-- Created with Inkscape (http://www.inkscape.org/) -->

<svg
   width="32"
   height="32"
   viewBox="0 0 8.4666666 8.4666666"
   version="1.1"
   id="svg1"
   inkscape:version="1.4.3 (0d15f75, 2025-12-25)"
   sodipodi:docname="technical-pen.svg"
   xmlns:inkscape="http://www.inkscape.org/namespaces/inkscape"
   xmlns:sodipodi="http://sodipodi.sourceforge.net/DTD/sodipodi-0.dtd"
   xmlns="http://www.w3.org/2000/svg"
   xmlns:svg="http://www.w3.org/2000/svg">
  <sodipodi:namedview
     id="namedview1"
     pagecolor="#ffffff"
     bordercolor="#000000"
     borderopacity="0.25"
     inkscape:showpageshadow="2"
     inkscape:pageopacity="0.0"
     inkscape:pagecheckerboard="0"
     inkscape:deskcolor="#d1d1d1"
     inkscape:document-units="px"
     showgrid="true"
     inkscape:zoom="23.020094"
     inkscape:cx="13.097253"
     inkscape:cy="15.681952"
     inkscape:window-width="1620"
     inkscape:window-height="992"
     inkscape:window-x="-8"
     inkscape:window-y="-8"
     inkscape:window-maximized="1"
     inkscape:current-layer="layer1">
    <inkscape:grid
       id="grid1"
       units="px"
       originx="0"
       originy="0"
       spacingx="0.26458333"
       spacingy="0.26458333"
       empcolor="#0099e5"
       empopacity="0.30196078"
       color="#0099e5"
       opacity="0.14901961"
       empspacing="5"
       enabled="true"
       visible="true"
       dotted="false" />
  </sodipodi:namedview>
  <defs
     id="defs1" />
  <g
     inkscape:label="Layer 1"
     inkscape:groupmode="layer"
     id="layer1">
    <g
       id="g1"
       transform="matrix(0.70933911,0,0,0.70062602,2.0433259,0.40590051)">
      <path
         style="fill:none;stroke:#000000;stroke-width:1.32783;stroke-linecap:round;stroke-linejoin:round"
         d="m 6.1573421,5.7642353 c 0,0 -1.5565457,0.4232407 -2.7180956,-0.5405328 C 2.2776966,4.2599291 2.5953819,2.2443354 2.5953819,2.2443354 c 0,0 1.1199768,0.1159877 2.2429508,1.1669277 1.122974,1.05094 1.3190094,2.3529722 1.3190094,2.3529722 z"
         id="path6"
         sodipodi:nodetypes="czczc" />
      <path
         style="fill:none;stroke:#000000;stroke-width:1.32783;stroke-linecap:round;stroke-linejoin:round"
         d="M 2.5953822,2.2443353 3.2967309,1.493928"
         id="path7"
         sodipodi:nodetypes="cc" />
      <path
         style="fill:none;stroke:#000000;stroke-width:1.32783;stroke-linecap:round;stroke-linejoin:round"
         d="M 6.1573421,5.7642353 7.1294732,4.9947151"
         id="path7-9"
         sodipodi:nodetypes="cc" />
      <path
         style="fill:none;stroke:#000000;stroke-width:1.32783;stroke-linecap:round;stroke-linejoin:round"
         d="M 2.7745082,2.0864373 3.7057232,0.98646847 C 5.7093258,0.32648719 8.0614801,2.7376139 7.3936124,4.7175575 L 6.3364683,5.6063369"
         id="path9"
         sodipodi:nodetypes="cccc" />
    </g>
    <path
       style="fill:#ffffff;fill-opacity:1;stroke:#000000;stroke-width:0.264583px;stroke-linecap:butt;stroke-linejoin:miter;stroke-opacity:1"
       d="m 1.9185908,7.8173141 c 0,0 3.1414888,-1.6395195 3.2919747,-2.1705395 C 5.3610512,5.1157546 4.9601001,4.1893938 4.9601001,4.1893938 L 5.356561,3.8096076 c 0,0 -0.2055146,-0.2413868 -0.3046475,-0.3338119 C 4.9527806,3.3833706 4.6407758,3.2780378 4.6407758,3.2780378 L 4.3790547,3.7239204 c 0,0 -0.2499854,-0.034481 -0.5588755,-0.033044 -0.30889,0.00144 -0.6766846,0.038791 -0.9123031,0.1824606 C 2.4366393,4.1606766 1.678063,7.6202445 1.678063,7.6202445 L 2.9890305,5.8029623 c 0,0 0.2366502,-0.1248641 0.3225196,-0.058764 0.085869,0.0661 -0.018358,0.3699303 -0.018358,0.3699303 z"
       id="use1"
       sodipodi:nodetypes="cscczccsscczcc" />
  </g>
</svg>
