<?xml version="1.0" encoding="UTF-8" standalone="no"?>
<!-- Created with Inkscape (http://www.inkscape.org/) -->

<svg
   width="32"
   height="32"
   viewBox="0 0 8.4666666 8.4666666"
   version="1.1"
   id="svg1"
   inkscape:version="1.4.3 (0d15f75, 2025-12-25)"
   sodipodi:docname="pixel-to-vector.svg"
   xmlns:inkscape="http://www.inkscape.org/namespaces/inkscape"
   xmlns:sodipodi="http://sodipodi.sourceforge.net/DTD/sodipodi-0.dtd"
   xmlns="http://www.w3.org/2000/svg"
   xmlns:svg="http://www.w3.org/2000/svg">
  <sodipodi:namedview
     id="namedview1"
     pagecolor="#ffffff"
     bordercolor="#000000"
     borderopacity="0.25"
     inkscape:showpageshadow="2"
     inkscape:pageopacity="0.0"
     inkscape:pagecheckerboard="0"
     inkscape:deskcolor="#d1d1d1"
     inkscape:document-units="px"
     showgrid="true"
     inkscape:zoom="32.555331"
     inkscape:cx="11.687794"
     inkscape:cy="16.126391"
     inkscape:window-width="1620"
     inkscape:window-height="992"
     inkscape:window-x="-8"
     inkscape:window-y="-8"
     inkscape:window-maximized="1"
     inkscape:current-layer="layer1">
    <inkscape:grid
       id="grid1"
       units="px"
       originx="0"
       originy="0"
       spacingx="0.26458333"
       spacingy="0.26458333"
       empcolor="#0099e5"
       empopacity="0.30196078"
       color="#0099e5"
       opacity="0.14901961"
       empspacing="5"
       enabled="true"
       visible="true"
       dotted="false" />
  </sodipodi:namedview>
  <defs
     id="defs1" />
  <g
     inkscape:label="Layer 1"
     inkscape:groupmode="layer"
     id="layer1">
    <path
       style="fill:#000000;fill-opacity:0;stroke:#000000;stroke-width:0.79375;stroke-linecap:round;stroke-linejoin:round;stroke-dasharray:none;stroke-dashoffset:0"
       d="M 1.0583333,2.3812499 V 1.0583333 h 1.3229166"
       id="path1" />
    <path
       style="fill:#000000;fill-opacity:0;stroke:#000000;stroke-width:0.79375;stroke-linecap:round;stroke-linejoin:round;stroke-dasharray:none;stroke-dashoffset:0"
       d="M 1.0583333,7.408333 V 6.0854163 Z"
       id="path2" />
    <path
       style="fill:#000000;fill-opacity:0;stroke:#000000;stroke-width:0.79375;stroke-linecap:round;stroke-linejoin:round;stroke-dasharray:none;stroke-dashoffset:0"
       d="M 1.0583333,7.408333 H 2.3812499 Z"
       id="path3" />
    <path
       style="fill:#000000;fill-opacity:0;stroke:#000000;stroke-width:0.79375;stroke-linecap:round;stroke-linejoin:round;stroke-dasharray:none;stroke-dashoffset:0"
       d="M 1.0583333,3.7041664 V 4.7624997 Z"
       id="path4" />
    <path
       style="fill:#000000;fill-opacity:0;stroke:#000000;stroke-width:0.79375;stroke-linecap:round;stroke-linejoin:round;stroke-dasharray:none;stroke-dashoffset:0"
       d="M 7.4083329,2.3812499 V 1.0583333 H 6.0854163"
       id="path1-5" />
    <path
       style="fill:#000000;fill-opacity:0;stroke:#000000;stroke-width:0.79375;stroke-linecap:round;stroke-linejoin:round;stroke-dasharray:none;stroke-dashoffset:0"
       d="m 7.4083329,7.4083329 0,-1.3229166 z"
       id="path2-3"
       sodipodi:nodetypes="ccc" />
    <path
       style="fill:#000000;fill-opacity:0;stroke:#000000;stroke-width:0.79375;stroke-linecap:round;stroke-linejoin:round;stroke-dasharray:none;stroke-dashoffset:0"
       d="M 7.4083329,7.4083329 H 6.0854163 Z"
       id="path3-5"
       sodipodi:nodetypes="ccc" />
    <path
       style="fill:#000000;fill-opacity:0;stroke:#000000;stroke-width:0.79375;stroke-linecap:round;stroke-linejoin:round;stroke-dasharray:none;stroke-dashoffset:0"
       d="M 7.4083329,3.7041665 V 4.7624998 Z"
       id="path4-6" />
    <path
       style="fill:#000000;fill-opacity:0;stroke:#000000;stroke-width:0.79375;stroke-linecap:round;stroke-linejoin:round;stroke-dasharray:none;stroke-dashoffset:0"
       d="M 3.7041664,1.0583333 H 4.7624997 Z"
       id="path5" />
    <path
       style="fill:#000000;fill-opacity:0;stroke:#000000;stroke-width:0.79375;stroke-linecap:round;stroke-linejoin:round;stroke-dasharray:none;stroke-dashoffset:0"
       d="M 3.7041664,7.408333 H 4.7624997 Z"
       id="path6" />
    <path
       style="fill:none;stroke:#000000;stroke-width:0.264583px;stroke-linecap:butt;stroke-linejoin:miter;stroke-opacity:1"
       d="m 2.2024682,6.6399134 c -0.00542,-0.0298 -0.012715,-0.059318 -0.016254,-0.089399 -0.0019,-0.016142 5.424e-4,-0.032518 0,-0.048763 -0.01388,-0.4164084 -0.00126,-0.017055 -0.016254,-0.3169603 -6.773e-4,-0.013528 9.657e-4,-0.027125 0,-0.040636 -0.00175,-0.024469 -0.00489,-0.048828 -0.00813,-0.073145 -0.00218,-0.016333 -0.00695,-0.032326 -0.00813,-0.048763 -0.00155,-0.021617 0,-0.043345 0,-0.065017 0,-0.021672 0,-0.043345 0,-0.065018 0,-0.00542 -4.895e-4,-0.010858 0,-0.016253 0.00222,-0.024432 0.00638,-0.048675 0.00813,-0.073145 9.657e-4,-0.013512 -0.00123,-0.027146 0,-0.040636 0.00149,-0.016412 0.00526,-0.032535 0.00813,-0.048763 0.00526,-0.029828 0.010314,-0.059699 0.016254,-0.089399 0.012726,-0.063632 0.00813,2.646e-4 0.00813,-0.089399 0,-0.00366 -0.00124,-0.021908 0,-0.024381 0.052968,-0.1059359 0.05397,-0.1042315 0.1056535,-0.1869252 0.013545,-0.021672 0.026459,-0.043753 0.040636,-0.065018 0.012927,-0.019391 0.027709,-0.0375 0.040636,-0.05689 0.00336,-0.00504 0.00621,-0.010507 0.00813,-0.016253 8.572e-4,-0.00257 -0.00242,-0.00692 0,-0.00813 0.00485,-0.00243 0.011746,0.00301 0.016254,0 0.012751,-0.0085 0.021673,-0.021672 0.032509,-0.032509 0.018963,-0.018963 0.037927,-0.037927 0.05689,-0.05689 0.00813,-0.00813 0.014526,-0.018468 0.024382,-0.024381 0.00465,-0.00279 0.011518,0.00262 0.016254,0 0.020372,-0.011316 0.037927,-0.027091 0.05689,-0.040636 0.018963,-0.013544 0.038247,-0.026653 0.05689,-0.040636 0.360561,-0.2704205 -0.044169,0.032963 0.2356885,-0.1869252 0.012123,-0.00953 0.019248,-0.00813 0.032509,-0.00813 0.00271,0 0.00576,0.00132 0.00813,0 0.030018,-0.016677 0.078003,-0.053092 0.1137806,-0.065018 0.1444972,-0.048166 -0.00389,0.021558 0.065017,-0.024381 0.00225,-0.00151 0.00542,0 0.00813,0 0.00271,0 0.00542,0 0.00813,0 0.00731,0 0.042894,0.00167 0.048763,0 0.014028,-0.00401 0.026483,-0.012716 0.040636,-0.016253 0.014409,-0.0036 0.040943,0.00228 0.05689,0 0.013674,-0.00196 0.026929,-0.00641 0.040636,-0.00813 0.00806,-0.00101 0.016253,0 0.024381,0 0.029799,-0.00542 0.059629,-0.010673 0.089399,-0.016253 0.1050604,-0.019698 -0.037017,0.00667 0.097526,-0.024381 0.016058,-0.0037 0.032509,-0.00542 0.048763,-0.00813 0.016253,-0.00271 0.03245,-0.0058 0.048763,-0.00813 0.021151,-0.00302 0.043945,0.00351 0.065018,0 0.00845,-0.0014 0.015952,-0.00659 0.024381,-0.00813 0.021489,-0.00391 0.04331,-0.00572 0.065017,-0.00813 0.04009,-0.00445 0.068963,-0.00813 0.1056534,-0.00813 0,0 0.8208351,0.056906 1.3572296,-0.5363793 0.5363945,-0.5932848 0.097526,-1.974907 0.097526,-1.974907"
       id="path7" />
    <ellipse
       style="fill:#ffffff;fill-opacity:1;stroke:#000000;stroke-width:0.132285;stroke-dasharray:none;stroke-opacity:1;paint-order:fill markers stroke"
       id="path8"
       cx="5.3111181"
       cy="2.2431042"
       rx="0.29014108"
       ry="0.30233189" />
    <ellipse
       style="fill:#ffffff;fill-opacity:1;stroke:#000000;stroke-width:0.132285;stroke-dasharray:none;stroke-opacity:1;paint-order:fill markers stroke"
       id="path8-1"
       cx="4.2943234"
       cy="4.4636617"
       rx="0.29014108"
       ry="0.30233189" />
  </g>
</svg>
